<svg xmlns="http://www.w3.org/2000/svg" version="1.1" xmlns:xlink="http://www.w3.org/1999/xlink" width="1000" height="1000"><g clip-path="url(#SvgjsClipPath1227)"><rect width="1000" height="1000" fill="#ffffff"></rect><g transform="matrix(17.02127659574468,0,0,17.02127659574468,100,108.51063829787233)"><svg xmlns="http://www.w3.org/2000/svg" version="1.1" xmlns:xlink="http://www.w3.org/1999/xlink" width="47" height="46"><svg width="47" height="46" viewBox="0 0 47 46" fill="none" xmlns="http://www.w3.org/2000/svg">
<path d="M19.0038 0.816997C17.0698 1.77016 15.6418 3.35877 14.9048 5.35585C14.1678 7.30756 14.2598 9.44083 15.1808 11.3018C15.6418 12.255 16.2408 13.072 17.0698 13.7982L17.3458 14.1159C18.5888 15.4776 20.0628 16.7938 21.5368 18.0193C16.1018 17.7924 11.9578 16.6123 11.9578 15.1598C11.9578 14.3882 13.2008 13.7074 15.1808 13.1627C14.1678 13.3897 13.2468 13.6166 12.4638 13.889C10.5298 14.5698 9.65477 15.3414 9.65477 16.3853C9.65477 16.7484 9.79276 17.1116 10.0698 17.4293C10.7138 23.5567 16.0558 28.3679 22.6878 28.6403V36.1294C22.5498 36.1748 22.3658 36.1748 22.2278 36.2202C20.7998 36.3563 19.4178 36.1748 18.4048 35.7209C16.5168 34.8131 15.0428 33.5422 13.9838 31.9082C13.2008 30.6374 12.9708 29.548 12.9248 29.4573C12.9248 29.2757 12.7868 29.1395 12.6488 29.0488C12.6018 29.0488 12.5558 29.0488 12.4638 29.0488C12.2798 29.0488 12.0958 29.1849 12.0038 29.3665C12.0038 29.4573 12.0038 29.548 12.0038 29.6388C12.4178 31.4544 13.0628 33.043 13.9378 34.45C14.6288 35.5393 15.4578 36.5379 16.3788 37.3095C17.6678 38.4442 18.9578 38.9889 19.4178 39.125C20.4778 39.4882 21.5828 39.6697 22.6878 39.7151V41.4399C11.3128 41.1675 2.19376 31.9536 2.19376 20.6973C2.19376 13.9797 5.41776 7.9884 10.4378 4.22115C4.31276 8.26074 0.259766 15.2052 0.259766 23.0575C0.259766 35.5847 10.5758 45.7518 23.2868 45.7518C35.9968 45.7518 46.3128 35.5847 46.3128 23.0575C46.3128 15.2052 42.2608 8.26074 36.1358 4.22115C41.1548 7.9884 44.3788 13.9797 44.3788 20.6973C44.3788 31.8629 35.3988 41.0314 24.1158 41.4399V40.5321L24.1618 39.6697C25.4508 39.5335 26.6948 39.2158 27.8918 38.6258C30.5628 37.3549 32.5888 35.1308 33.5568 32.3621C34.4318 29.775 34.3388 27.0063 33.2798 24.5099C35.0758 22.6036 36.2738 20.1526 36.5498 17.4293C36.8258 17.1116 37.0108 16.7484 37.0108 16.3853C37.0108 15.3868 36.2278 14.6606 34.3858 13.9797C33.6948 13.7074 32.8658 13.4805 31.9448 13.2535C33.6948 13.7982 34.7998 14.4336 34.7998 15.1598C34.7998 16.4761 31.2998 17.6108 26.5098 17.9286C23.8388 16.113 21.9048 14.479 20.6158 13.2989C18.7738 11.5741 17.9448 10.4848 17.8988 10.4848C16.7008 8.57845 17.4378 6.26363 17.4378 6.26363C17.8528 4.99276 18.8198 3.90343 20.1548 3.2226C21.5828 2.54177 23.1948 2.4056 24.6218 2.90488C26.9708 3.72187 28.4448 5.90053 28.3988 8.26074C27.2928 8.48768 26.4638 9.48623 26.4638 10.6664C26.4638 10.8479 26.4638 11.0295 26.5098 11.2564C26.5568 11.3472 26.5568 11.438 26.6028 11.5741L27.4778 14.9783C27.5238 15.2506 27.7538 15.4776 28.0298 15.5683C28.0758 15.1598 28.2598 14.7967 28.3068 14.7513C28.2138 14.9329 28.1678 15.2506 28.1678 15.5683C28.2138 15.9768 28.3068 16.3853 28.7208 16.7031C28.7208 16.7031 28.3528 16.2946 28.3068 15.6137C28.5368 15.5683 28.7668 15.4322 28.9048 15.2506L31.0238 12.3458C31.0698 12.3004 31.1158 12.2096 31.1618 12.1188C31.4838 11.7103 31.6678 11.211 31.6678 10.6664C31.6678 9.80395 31.2078 9.03234 30.4708 8.57845V8.53306C30.6088 7.17141 30.3328 5.76436 29.6878 4.49348C28.7668 2.58716 27.1088 1.13472 25.0828 0.453888C24.2538 0.181553 23.3788 0 22.5038 0C21.3058 0 20.1088 0.272331 19.0038 0.816997ZM29.7798 20.0618C32.5888 19.6079 34.7998 18.7909 35.9968 17.8378C35.3528 18.9725 33.2798 19.971 30.3788 20.5611C30.1948 20.3795 29.9638 20.2434 29.7798 20.0618ZM10.8058 17.8378C12.7868 19.4718 17.6678 20.6065 23.3788 20.6065C23.8388 20.6065 24.2998 20.5611 24.7598 20.5611C25.0368 20.788 25.3128 20.9696 25.5428 21.1511C24.8528 21.1965 24.1158 21.2419 23.3788 21.2419C17.0698 21.2419 11.8198 19.7441 10.8058 17.8378ZM24.1618 28.6403C26.1418 28.5495 27.9838 28.0048 29.6418 27.1878C30.0108 28.7764 29.8718 29.9565 29.8718 29.9565C29.7338 31.0459 29.3658 32.0444 28.7208 32.9068C28.1218 33.7238 27.3388 34.4046 26.3718 34.9493C25.6818 35.3124 24.9448 35.6301 24.1618 35.8571V28.6403Z" fill="url(#paint0_linear_2020_439)"></path>
<defs>
<linearGradient id="paint0_linear_2020_439" x1="0.259766" y1="22.8759" x2="46.3128" y2="22.8759" gradientUnits="userSpaceOnUse">
<stop stop-color="#C45386"></stop>
<stop offset="1" stop-color="#9C0059"></stop>
</linearGradient>
<clipPath id="SvgjsClipPath1227"><rect width="1000" height="1000" x="0" y="0" rx="450" ry="450"></rect></clipPath></defs>
</svg></svg></g></g></svg>